<?xml version="1.0" encoding="UTF-8"?>
<!DOCTYPE svg PUBLIC "-//W3C//DTD SVG 1.1//EN" "http://www.w3.org/Graphics/SVG/1.1/DTD/svg11.dtd">
<!-- Creator: CorelDRAW -->
<svg xmlns="http://www.w3.org/2000/svg" xml:space="preserve" width="164px" height="200px" version="1.1" style="shape-rendering:geometricPrecision; text-rendering:geometricPrecision; image-rendering:optimizeQuality; fill-rule:evenodd; clip-rule:evenodd"
viewBox="0 0 17.71 21.6"
 xmlns:xlink="http://www.w3.org/1999/xlink"
 xmlns:xodm="http://www.corel.com/coreldraw/odm/2003">
 <defs>
  <style type="text/css">
   <![CDATA[
    .str1 {stroke:white;stroke-width:0.29;stroke-miterlimit:22.9256}
    .str0 {stroke:white;stroke-width:0.29;stroke-miterlimit:22.9256}
    .fil0 {fill:none}
    .fil1 {fill:#F7F7F7;fill-rule:nonzero}
   ]]>
  </style>
 </defs>
 <g id="Layer_x0020_1">
  <metadata id="CorelCorpID_0Corel-Layer"/>
  <rect class="fil0 str0" x="0.14" y="0.14" width="17.42" height="21.32" rx="1.18" ry="1.45"/>
  <polygon class="fil1" points="6.37,14.39 6.37,16.21 6.01,16.21 6.01,15.03 5.52,16.21 5.25,16.21 4.76,15.03 4.76,16.21 4.39,16.21 4.39,14.39 4.81,14.39 5.38,15.74 5.96,14.39 "/>
  <path id="_1" class="fil1" d="M6.64 15.48c0,-0.14 0.02,-0.27 0.08,-0.39 0.06,-0.11 0.14,-0.2 0.24,-0.26 0.1,-0.05 0.21,-0.09 0.33,-0.09 0.11,0 0.2,0.02 0.28,0.07 0.09,0.04 0.15,0.1 0.2,0.16l0 -0.2 0.36 0 0 1.44 -0.36 0 0 -0.21c-0.05,0.06 -0.11,0.12 -0.2,0.16 -0.08,0.05 -0.17,0.07 -0.28,0.07 -0.12,0 -0.23,-0.03 -0.33,-0.09 -0.1,-0.07 -0.18,-0.16 -0.24,-0.27 -0.06,-0.11 -0.08,-0.24 -0.08,-0.39zm1.13 0.01c0,-0.09 -0.02,-0.17 -0.06,-0.23 -0.03,-0.06 -0.08,-0.11 -0.14,-0.15 -0.06,-0.03 -0.12,-0.05 -0.18,-0.05 -0.07,0 -0.13,0.02 -0.19,0.05 -0.06,0.04 -0.11,0.08 -0.14,0.15 -0.04,0.06 -0.05,0.14 -0.05,0.22 0,0.09 0.01,0.16 0.05,0.23 0.03,0.06 0.08,0.11 0.14,0.15 0.06,0.03 0.12,0.05 0.19,0.05 0.06,0 0.12,-0.02 0.18,-0.05 0.06,-0.04 0.11,-0.08 0.14,-0.15 0.04,-0.06 0.06,-0.14 0.06,-0.22z"/>
  <path id="_2" class="fil1" d="M9.04 16.23c-0.12,0 -0.22,-0.02 -0.32,-0.07 -0.09,-0.04 -0.16,-0.09 -0.22,-0.17 -0.05,-0.07 -0.08,-0.15 -0.09,-0.24l0.37 0c0,0.06 0.03,0.1 0.08,0.14 0.05,0.03 0.11,0.05 0.18,0.05 0.07,0 0.12,-0.01 0.16,-0.04 0.04,-0.03 0.06,-0.06 0.06,-0.1 0,-0.05 -0.03,-0.09 -0.07,-0.11 -0.05,-0.02 -0.13,-0.05 -0.23,-0.08 -0.11,-0.02 -0.2,-0.05 -0.26,-0.08 -0.07,-0.03 -0.13,-0.07 -0.18,-0.12 -0.05,-0.06 -0.08,-0.14 -0.08,-0.24 0,-0.08 0.03,-0.15 0.07,-0.21 0.05,-0.07 0.12,-0.12 0.2,-0.16 0.09,-0.04 0.19,-0.06 0.3,-0.06 0.17,0 0.31,0.05 0.41,0.13 0.1,0.09 0.16,0.2 0.17,0.35l-0.35 0c0,-0.06 -0.02,-0.1 -0.07,-0.14 -0.04,-0.03 -0.1,-0.05 -0.17,-0.05 -0.06,0 -0.11,0.02 -0.15,0.04 -0.03,0.02 -0.05,0.06 -0.05,0.1 0,0.05 0.02,0.09 0.07,0.11 0.05,0.02 0.12,0.05 0.23,0.08 0.1,0.02 0.19,0.05 0.25,0.08 0.07,0.03 0.13,0.07 0.18,0.12 0.05,0.06 0.07,0.14 0.07,0.24 0,0.08 -0.02,0.15 -0.06,0.22 -0.05,0.06 -0.11,0.12 -0.2,0.15 -0.09,0.04 -0.19,0.06 -0.3,0.06z"/>
  <path id="_3" class="fil1" d="M10.33 15.07l0 0.69c0,0.05 0.01,0.08 0.03,0.11 0.03,0.02 0.06,0.03 0.12,0.03l0.17 0 0 0.31 -0.23 0c-0.31,0 -0.46,-0.15 -0.46,-0.45l0 -0.69 -0.17 0 0 -0.3 0.17 0 0 -0.36 0.37 0 0 0.36 0.32 0 0 0.3 -0.32 0z"/>
  <path id="_4" class="fil1" d="M12.25 15.46c0,0.05 -0.01,0.09 -0.01,0.14l-1.05 0c0,0.1 0.04,0.18 0.1,0.24 0.07,0.06 0.15,0.09 0.24,0.09 0.14,0 0.23,-0.06 0.29,-0.18l0.39 0c-0.04,0.14 -0.12,0.26 -0.24,0.34 -0.12,0.09 -0.26,0.14 -0.43,0.14 -0.14,0 -0.26,-0.03 -0.37,-0.09 -0.11,-0.06 -0.2,-0.15 -0.26,-0.26 -0.06,-0.12 -0.09,-0.25 -0.09,-0.39 0,-0.15 0.03,-0.28 0.09,-0.4 0.06,-0.11 0.14,-0.2 0.25,-0.26 0.11,-0.05 0.24,-0.09 0.38,-0.09 0.14,0 0.26,0.03 0.37,0.09 0.1,0.06 0.19,0.14 0.25,0.25 0.06,0.11 0.09,0.23 0.09,0.38zm-0.38 -0.11c0,-0.09 -0.04,-0.17 -0.1,-0.22 -0.07,-0.06 -0.15,-0.09 -0.24,-0.09 -0.09,0 -0.17,0.03 -0.23,0.08 -0.06,0.06 -0.1,0.14 -0.11,0.23l0.68 0z"/>
  <path id="_5" class="fil1" d="M12.87 14.99c0.05,-0.07 0.11,-0.13 0.19,-0.18 0.07,-0.04 0.16,-0.06 0.26,-0.06l0 0.38 -0.1 0c-0.11,0 -0.2,0.02 -0.26,0.08 -0.06,0.05 -0.09,0.15 -0.09,0.28l0 0.72 -0.36 0 0 -1.44 0.36 0 0 0.22z"/>
  <path id="_6" class="fil1" d="M7.41 17.8c0,0.1 -0.02,0.19 -0.07,0.27 -0.04,0.09 -0.12,0.16 -0.21,0.21 -0.1,0.05 -0.22,0.08 -0.37,0.08l-0.31 0 0 0.69 -0.36 0 0 -1.81 0.67 0c0.14,0 0.26,0.03 0.36,0.07 0.09,0.05 0.17,0.12 0.22,0.2 0.05,0.09 0.07,0.19 0.07,0.29zm-0.67 0.26c0.1,0 0.18,-0.02 0.22,-0.07 0.05,-0.04 0.08,-0.1 0.08,-0.19 0,-0.17 -0.1,-0.26 -0.3,-0.26l-0.29 0 0 0.52 0.29 0z"/>
  <polygon id="_7" class="fil1" points="8.03,17.13 8.03,19.05 7.67,19.05 7.67,17.13 "/>
  <path id="_8" class="fil1" d="M8.3 18.33c0,-0.15 0.02,-0.28 0.08,-0.39 0.06,-0.11 0.14,-0.2 0.24,-0.26 0.1,-0.06 0.21,-0.09 0.33,-0.09 0.11,0 0.21,0.02 0.29,0.07 0.08,0.04 0.14,0.1 0.19,0.16l0 -0.2 0.36 0 0 1.43 -0.36 0 0 -0.21c-0.05,0.07 -0.11,0.13 -0.19,0.17 -0.09,0.05 -0.18,0.07 -0.29,0.07 -0.12,0 -0.23,-0.03 -0.33,-0.1 -0.1,-0.06 -0.18,-0.15 -0.24,-0.26 -0.06,-0.11 -0.08,-0.24 -0.08,-0.39zm1.13 0c0,-0.08 -0.02,-0.16 -0.05,-0.22 -0.04,-0.07 -0.08,-0.12 -0.14,-0.15 -0.06,-0.03 -0.13,-0.05 -0.19,-0.05 -0.07,0 -0.13,0.02 -0.19,0.05 -0.06,0.03 -0.1,0.08 -0.14,0.14 -0.03,0.07 -0.05,0.14 -0.05,0.23 0,0.08 0.02,0.16 0.05,0.23 0.04,0.06 0.08,0.11 0.14,0.15 0.06,0.03 0.12,0.05 0.19,0.05 0.06,0 0.13,-0.02 0.19,-0.05 0.06,-0.04 0.1,-0.08 0.14,-0.15 0.03,-0.06 0.05,-0.14 0.05,-0.23z"/>
  <path id="_9" class="fil1" d="M10.95 17.59c0.17,0 0.31,0.06 0.41,0.17 0.11,0.1 0.16,0.26 0.16,0.45l0 0.84 -0.36 0 0 -0.79c0,-0.12 -0.03,-0.2 -0.09,-0.27 -0.06,-0.06 -0.13,-0.09 -0.23,-0.09 -0.1,0 -0.18,0.03 -0.24,0.09 -0.06,0.07 -0.09,0.15 -0.09,0.27l0 0.79 -0.36 0 0 -1.43 0.36 0 0 0.17c0.05,-0.06 0.11,-0.11 0.19,-0.14 0.08,-0.04 0.16,-0.06 0.25,-0.06z"/>
  <path class="fil0 str1" d="M2.81 7.8c1.29,0.34 1.81,0.64 1.56,0.9 -0.35,-0.15 -0.76,0.03 -1.24,0.55 0.27,0.34 0.76,0.63 1.47,0.89 0.86,0.28 1.41,0.38 1.65,0.3 0.47,-0.27 1.12,-0.44 1.95,-0.52 0.76,0.09 1.3,-0.01 1.6,-0.28 0.12,-0.25 0.5,-0.33 1.13,-0.25 0.41,0.16 0.54,0.06 0.39,-0.3 0.13,-0.21 -0.03,-0.35 -0.46,-0.41 0.2,0.02 0.36,-0.08 0.46,-0.32 0.09,-0.12 0.07,-0.25 -0.03,-0.4 0.12,0.02 0.2,-0.04 0.27,-0.18 0.37,0.11 0.38,0.01 0.01,-0.3 0.3,-0.41 0.34,-0.91 0.13,-1.49 -0.32,-0.49 -0.28,-0.73 0.1,-0.73 0.71,-0.15 1.71,-0.24 3,-0.28 0.49,-0.16 0.35,-0.33 -0.43,-0.54 -0.23,-0.3 -0.91,-0.49 -2.02,-0.58 -1.09,-0.02 -2.54,0.16 -4.32,0.53 -0.92,-0.13 -1.66,-0.06 -2.24,0.21 -1.02,-0.19 -1.92,0 -2.69,0.55 -0.53,0.25 -0.61,0.66 -0.25,1.23 -0.27,0.35 -0.28,0.83 -0.04,1.42z"/>
 </g>
</svg>
